<svg id="visual" viewBox="0 0 900 600" width="900" height="600" xmlns="http://www.w3.org/2000/svg" xmlns:xlink="http://www.w3.org/1999/xlink" version="1.1"><rect x="0" y="0" width="900" height="600" fill="#001220"></rect><g fill="#A7233A"><circle r="72" cx="690" cy="253"></circle><circle r="32" cx="733" cy="398"></circle><circle r="56" cx="362" cy="47"></circle><circle r="63" cx="258" cy="568"></circle><circle r="37" cx="869" cy="142"></circle><circle r="37" cx="38" cy="172"></circle><circle r="53" cx="85" cy="329"></circle><circle r="32" cx="182" cy="56"></circle><circle r="53" cx="523" cy="330"></circle><circle r="45" cx="121" cy="513"></circle><circle r="33" cx="219" cy="221"></circle><circle r="37" cx="364" cy="466"></circle><circle r="60" cx="622" cy="37"></circle><circle r="67" cx="582" cy="474"></circle><circle r="49" cx="408" cy="216"></circle><circle r="63" cx="892" cy="590"></circle><circle r="66" cx="421" cy="598"></circle><circle r="66" cx="223" cy="412"></circle><circle r="44" cx="851" cy="313"></circle><circle r="56" cx="777" cy="9"></circle><circle r="65" cx="711" cy="587"></circle></g></svg>