<svg id="visual" viewBox="0 0 900 600" width="900" height="600" xmlns="http://www.w3.org/2000/svg" xmlns:xlink="http://www.w3.org/1999/xlink" version="1.1"><rect x="0" y="0" width="900" height="600" fill="#001220"></rect><defs><linearGradient id="grad1_0" x1="33.3%" y1="100%" x2="100%" y2="0%"><stop offset="20%" stop-color="#fbae3c" stop-opacity="1"></stop><stop offset="80%" stop-color="#fbae3c" stop-opacity="1"></stop></linearGradient></defs><defs><linearGradient id="grad1_1" x1="33.3%" y1="100%" x2="100%" y2="0%"><stop offset="20%" stop-color="#fbae3c" stop-opacity="1"></stop><stop offset="80%" stop-color="#f17c53" stop-opacity="1"></stop></linearGradient></defs><defs><linearGradient id="grad1_2" x1="33.3%" y1="100%" x2="100%" y2="0%"><stop offset="20%" stop-color="#cc5867" stop-opacity="1"></stop><stop offset="80%" stop-color="#f17c53" stop-opacity="1"></stop></linearGradient></defs><defs><linearGradient id="grad1_3" x1="33.3%" y1="100%" x2="100%" y2="0%"><stop offset="20%" stop-color="#cc5867" stop-opacity="1"></stop><stop offset="80%" stop-color="#96446e" stop-opacity="1"></stop></linearGradient></defs><defs><linearGradient id="grad1_4" x1="33.3%" y1="100%" x2="100%" y2="0%"><stop offset="20%" stop-color="#593762" stop-opacity="1"></stop><stop offset="80%" stop-color="#96446e" stop-opacity="1"></stop></linearGradient></defs><defs><linearGradient id="grad1_5" x1="33.3%" y1="100%" x2="100%" y2="0%"><stop offset="20%" stop-color="#593762" stop-opacity="1"></stop><stop offset="80%" stop-color="#232745" stop-opacity="1"></stop></linearGradient></defs><defs><linearGradient id="grad1_6" x1="33.3%" y1="100%" x2="100%" y2="0%"><stop offset="20%" stop-color="#001220" stop-opacity="1"></stop><stop offset="80%" stop-color="#232745" stop-opacity="1"></stop></linearGradient></defs><defs><linearGradient id="grad2_0" x1="0%" y1="100%" x2="66.7%" y2="0%"><stop offset="20%" stop-color="#fbae3c" stop-opacity="1"></stop><stop offset="80%" stop-color="#fbae3c" stop-opacity="1"></stop></linearGradient></defs><defs><linearGradient id="grad2_1" x1="0%" y1="100%" x2="66.7%" y2="0%"><stop offset="20%" stop-color="#f17c53" stop-opacity="1"></stop><stop offset="80%" stop-color="#fbae3c" stop-opacity="1"></stop></linearGradient></defs><defs><linearGradient id="grad2_2" x1="0%" y1="100%" x2="66.7%" y2="0%"><stop offset="20%" stop-color="#f17c53" stop-opacity="1"></stop><stop offset="80%" stop-color="#cc5867" stop-opacity="1"></stop></linearGradient></defs><defs><linearGradient id="grad2_3" x1="0%" y1="100%" x2="66.7%" y2="0%"><stop offset="20%" stop-color="#96446e" stop-opacity="1"></stop><stop offset="80%" stop-color="#cc5867" stop-opacity="1"></stop></linearGradient></defs><defs><linearGradient id="grad2_4" x1="0%" y1="100%" x2="66.7%" y2="0%"><stop offset="20%" stop-color="#96446e" stop-opacity="1"></stop><stop offset="80%" stop-color="#593762" stop-opacity="1"></stop></linearGradient></defs><defs><linearGradient id="grad2_5" x1="0%" y1="100%" x2="66.7%" y2="0%"><stop offset="20%" stop-color="#232745" stop-opacity="1"></stop><stop offset="80%" stop-color="#593762" stop-opacity="1"></stop></linearGradient></defs><defs><linearGradient id="grad2_6" x1="0%" y1="100%" x2="66.7%" y2="0%"><stop offset="20%" stop-color="#232745" stop-opacity="1"></stop><stop offset="80%" stop-color="#001220" stop-opacity="1"></stop></linearGradient></defs><g transform="translate(900, 600)"><path d="M-540.8 0C-455.5 -17.7 -370.1 -35.3 -379.6 -75.5C-389 -115.7 -493.2 -178.4 -499.7 -207C-506.1 -235.5 -414.7 -230 -384.1 -256.7C-353.6 -283.4 -383.8 -342.4 -373.4 -373.4C-363 -404.4 -312 -407.4 -270 -404.1C-228.1 -400.8 -195.1 -391.3 -169.9 -410.2C-144.7 -429.2 -127.1 -476.6 -100.1 -503.1C-73 -529.7 -36.5 -535.3 0 -540.8L0 0Z" fill="#0f1d33"></path><path d="M-463.6 0C-390.4 -15.1 -317.3 -30.3 -325.3 -64.7C-333.4 -99.2 -422.8 -152.9 -428.3 -177.4C-433.8 -201.9 -355.5 -197.1 -329.3 -220C-303 -242.9 -328.9 -293.4 -320 -320C-311.1 -346.6 -267.4 -349.2 -231.4 -346.4C-195.5 -343.6 -167.3 -335.4 -145.6 -351.6C-124 -367.8 -109 -408.5 -85.8 -431.3C-62.6 -454 -31.3 -458.8 0 -463.6L0 0Z" fill="#3d3056"></path><path d="M-386.3 0C-325.3 -12.6 -264.4 -25.2 -271.1 -53.9C-277.9 -82.6 -352.3 -127.4 -356.9 -147.8C-361.5 -168.2 -296.2 -164.3 -274.4 -183.3C-252.5 -202.4 -274.1 -244.5 -266.7 -266.7C-259.3 -288.8 -222.8 -291 -192.9 -288.6C-162.9 -286.3 -139.4 -279.5 -121.4 -293C-103.3 -306.5 -90.8 -340.4 -71.5 -359.4C-52.2 -378.3 -26.1 -382.3 0 -386.3L0 0Z" fill="#773d6b"></path><path d="M-309 0C-260.3 -10.1 -211.5 -20.2 -216.9 -43.1C-222.3 -66.1 -281.8 -101.9 -285.5 -118.3C-289.2 -134.6 -237 -131.4 -219.5 -146.7C-202 -161.9 -219.3 -195.6 -213.3 -213.3C-207.4 -231.1 -178.3 -232.8 -154.3 -230.9C-130.3 -229 -111.5 -223.6 -97.1 -234.4C-82.7 -245.2 -72.6 -272.4 -57.2 -287.5C-41.7 -302.7 -20.9 -305.9 0 -309L0 0Z" fill="#b34c6d"></path><path d="M-231.8 0C-195.2 -7.6 -158.6 -15.1 -162.7 -32.4C-166.7 -49.6 -211.4 -76.5 -214.1 -88.7C-216.9 -100.9 -177.7 -98.6 -164.6 -110C-151.5 -121.4 -164.5 -146.7 -160 -160C-155.6 -173.3 -133.7 -174.6 -115.7 -173.2C-97.7 -171.8 -83.6 -167.7 -72.8 -175.8C-62 -183.9 -54.5 -204.3 -42.9 -215.6C-31.3 -227 -15.7 -229.4 0 -231.8L0 0Z" fill="#e1685e"></path><path d="M-154.5 0C-130.1 -5 -105.8 -10.1 -108.4 -21.6C-111.1 -33.1 -140.9 -51 -142.8 -59.1C-144.6 -67.3 -118.5 -65.7 -109.8 -73.3C-101 -81 -109.6 -97.8 -106.7 -106.7C-103.7 -115.5 -89.1 -116.4 -77.1 -115.5C-65.2 -114.5 -55.8 -111.8 -48.5 -117.2C-41.3 -122.6 -36.3 -136.2 -28.6 -143.8C-20.9 -151.3 -10.4 -152.9 0 -154.5L0 0Z" fill="#f99447"></path><path d="M-77.3 0C-65.1 -2.5 -52.9 -5 -54.2 -10.8C-55.6 -16.5 -70.5 -25.5 -71.4 -29.6C-72.3 -33.6 -59.2 -32.9 -54.9 -36.7C-50.5 -40.5 -54.8 -48.9 -53.3 -53.3C-51.9 -57.8 -44.6 -58.2 -38.6 -57.7C-32.6 -57.3 -27.9 -55.9 -24.3 -58.6C-20.7 -61.3 -18.2 -68.1 -14.3 -71.9C-10.4 -75.7 -5.2 -76.5 0 -77.3L0 0Z" fill="#fbae3c"></path></g><g transform="translate(0, 0)"><path d="M540.8 0C543.2 37.2 545.6 74.4 530.4 105.5C515.2 136.6 482.5 161.5 466.6 193.3C450.7 225 451.6 263.5 429.9 287.2C408.1 311 363.7 319.9 329.5 329.5C295.4 339.1 271.5 349.4 251.7 376.7C231.8 403.9 215.9 448 187.9 453.6C159.9 459.2 119.8 426.4 86.4 434.5C53.1 442.6 26.5 491.7 0 540.8L0 0Z" fill="#0f1d33"></path><path d="M463.6 0C465.6 31.9 467.7 63.8 454.7 90.4C441.6 117.1 413.5 138.5 399.9 165.6C386.3 192.8 387.1 225.9 368.5 246.2C349.8 266.5 311.7 274.2 282.4 282.4C253.2 290.7 232.7 299.5 215.7 322.8C198.7 346.2 185.1 384 161.1 388.8C137 393.6 102.7 365.5 74.1 372.4C45.5 379.4 22.8 421.5 0 463.6L0 0Z" fill="#3d3056"></path><path d="M386.3 0C388 26.6 389.7 53.2 378.9 75.4C368 97.6 344.6 115.4 333.3 138C321.9 160.7 322.6 188.2 307 205.2C291.5 222.1 259.8 228.5 235.4 235.4C211 242.2 194 249.6 179.8 269C165.6 288.5 154.2 320 134.2 324C114.2 328 85.5 304.6 61.7 310.3C37.9 316.1 19 351.2 0 386.3L0 0Z" fill="#773d6b"></path><path d="M309 0C310.4 21.3 311.8 42.5 303.1 60.3C294.4 78.1 275.7 92.3 266.6 110.4C257.5 128.6 258.1 150.6 245.6 164.1C233.2 177.7 207.8 182.8 188.3 188.3C168.8 193.8 155.2 199.7 143.8 215.2C132.5 230.8 123.4 256 107.4 259.2C91.4 262.4 68.4 243.6 49.4 248.3C30.3 252.9 15.2 281 0 309L0 0Z" fill="#b34c6d"></path><path d="M231.8 0C232.8 16 233.8 31.9 227.3 45.2C220.8 58.5 206.8 69.2 200 82.8C193.1 96.4 193.6 112.9 184.2 123.1C174.9 133.3 155.9 137.1 141.2 141.2C126.6 145.3 116.4 149.8 107.9 161.4C99.3 173.1 92.5 192 80.5 194.4C68.5 196.8 51.3 182.7 37 186.2C22.8 189.7 11.4 210.7 0 231.8L0 0Z" fill="#e1685e"></path><path d="M154.5 0C155.2 10.6 155.9 21.3 151.6 30.1C147.2 39 137.8 46.2 133.3 55.2C128.8 64.3 129 75.3 122.8 82.1C116.6 88.8 103.9 91.4 94.1 94.1C84.4 96.9 77.6 99.8 71.9 107.6C66.2 115.4 61.7 128 53.7 129.6C45.7 131.2 34.2 121.8 24.7 124.1C15.2 126.5 7.6 140.5 0 154.5L0 0Z" fill="#f99447"></path><path d="M77.3 0C77.6 5.3 77.9 10.6 75.8 15.1C73.6 19.5 68.9 23.1 66.7 27.6C64.4 32.1 64.5 37.6 61.4 41C58.3 44.4 52 45.7 47.1 47.1C42.2 48.4 38.8 49.9 36 53.8C33.1 57.7 30.8 64 26.8 64.8C22.8 65.6 17.1 60.9 12.3 62.1C7.6 63.2 3.8 70.2 0 77.3L0 0Z" fill="#fbae3c"></path></g></svg>